<svg width="16" height="16" viewBox="0 0 16 16" fill="none" xmlns="http://www.w3.org/2000/svg">
<path opacity="0.2" fill-rule="evenodd" clip-rule="evenodd" d="M6.42715 14.2962C6.20465 14.273 6.00882 14.1459 5.87729 13.9542C5.62637 13.5883 5.65037 13.0488 5.94976 12.7176L5.95269 12.7143L10.3376 8.00298L5.95251 3.29192C5.6451 2.96171 5.61832 2.41516 5.8716 2.04592C6.00455 1.8521 6.20299 1.72462 6.42789 1.70318C6.65433 1.68158 6.87357 1.77102 7.03531 1.94476L12.047 7.32933C12.2146 7.5093 12.2998 7.75691 12.2998 8.00297C12.2998 8.24907 12.2146 8.49664 12.047 8.67661L7.03227 14.0644C6.86955 14.2341 6.65129 14.3197 6.42715 14.2962Z" fill="#191919"/>
</svg>
