<svg width="16" height="16" viewBox="0 0 16 16" fill="none" xmlns="http://www.w3.org/2000/svg">
<circle cx="8" cy="8" r="8" fill="black" fill-opacity="0.6"/>
<path fill-rule="evenodd" clip-rule="evenodd" d="M10.8821 10.7576C11.1555 10.4842 11.1555 10.041 10.8821 9.76761L9.11445 7.99997L10.8821 6.23236C11.1554 5.959 11.1554 5.51578 10.8821 5.24241C10.6087 4.96905 10.1655 4.96905 9.89211 5.24241L8.1245 7.01002L6.21519 5.1007C5.94182 4.82734 5.4986 4.82734 5.22524 5.1007C4.95187 5.37407 4.95187 5.81729 5.22524 6.09065L7.13455 7.99997L5.22521 9.90932C4.95184 10.1827 4.95184 10.6259 5.22521 10.8993C5.49857 11.1726 5.94179 11.1726 6.21516 10.8993L8.1245 8.98992L9.89214 10.7576C10.1655 11.0309 10.6087 11.0309 10.8821 10.7576Z" fill="white" fill-opacity="0.8"/>
</svg>
