<svg width="60" height="60" viewBox="0 0 60 60" fill="none" xmlns="http://www.w3.org/2000/svg">
<g opacity="0.2">
<path fill-rule="evenodd" clip-rule="evenodd" d="M30.0002 8.74606C20.5325 8.74606 12.8574 16.4212 12.8574 25.8889C12.8574 32.0875 16.1459 37.52 21.0836 40.5336C22.1891 41.2083 22.4224 42.4285 22.1955 43.3032C21.9659 44.1881 21.1384 45.1746 19.7918 45.1746C19.0237 45.1746 18.3179 45.5854 17.9368 46.2447C17.9177 46.3339 17.9448 46.3949 18.0747 46.5419C18.3708 46.877 19.0494 47.3334 20.2737 47.7722C22.6735 48.6322 26.2651 49.1094 30.0002 49.1094C33.7353 49.1094 37.3269 48.6322 39.7268 47.7722C40.9511 47.3334 41.6296 46.877 41.9258 46.5419C42.0557 46.3949 42.0828 46.3339 42.0637 46.2447C41.6825 45.5854 40.9768 45.1746 40.2087 45.1746C38.862 45.1746 38.0345 44.1881 37.805 43.3032C37.5781 42.4285 37.8113 41.2083 38.9168 40.5336C43.8546 37.52 47.1431 32.0875 47.1431 25.8889C47.1431 16.4212 39.468 8.74606 30.0002 8.74606ZM8.57166 25.8889C8.57166 14.0542 18.1655 4.46034 30.0002 4.46034C41.8349 4.46034 51.4288 14.0542 51.4288 25.8889C51.4288 32.3782 48.5433 38.1921 43.9914 42.1197C44.8088 42.7144 45.4893 43.504 45.9585 44.4425L46.0141 44.5536L46.0564 44.6703C46.7022 46.4511 46.253 48.1171 45.1373 49.3798C44.1408 50.5075 42.6695 51.2702 41.1726 51.8066C38.13 52.897 33.9934 53.3951 30.0002 53.3951C26.0071 53.3951 21.8705 52.897 18.8278 51.8066C17.3309 51.2702 15.8597 50.5075 14.8632 49.3798C13.7474 48.1171 13.2982 46.4511 13.9441 44.6703L13.9864 44.5536L14.0419 44.4425C14.5112 43.504 15.1917 42.7144 16.009 42.1196C11.4571 38.1921 8.57166 32.3782 8.57166 25.8889ZM22.5002 21.4505C22.5002 20.8464 22.9899 20.3567 23.594 20.3567H25.6921C26.2962 20.3567 26.7859 20.8464 26.7859 21.4505V26.7629C26.7859 27.367 26.2962 27.8567 25.6921 27.8567H23.594C22.9899 27.8567 22.5002 27.367 22.5002 26.7629V21.4505ZM34.3083 20.3567C33.7042 20.3567 33.2145 20.8464 33.2145 21.4505V26.7629C33.2145 27.367 33.7042 27.8567 34.3083 27.8567H36.4064C37.0105 27.8567 37.5002 27.367 37.5002 26.7629V21.4505C37.5002 20.8464 37.0105 20.3567 36.4064 20.3567H34.3083Z" fill="black"/>
</g>
</svg>
