<svg width="32" height="32" viewBox="0 0 32 32" fill="none" xmlns="http://www.w3.org/2000/svg">
<path fill-rule="evenodd" clip-rule="evenodd" d="M16.0008 6.48191C11.1404 6.48191 7.20017 10.4221 7.20017 15.2826C7.20017 18.4648 8.88839 21.2536 11.4233 22.8008C11.9908 23.1471 12.1106 23.7735 11.9941 24.2226C11.8762 24.6769 11.4514 25.1833 10.7601 25.1833C10.3658 25.1833 10.0035 25.3942 9.80779 25.7327C9.79798 25.7785 9.8119 25.8098 9.87859 25.8852C10.0306 26.0573 10.379 26.2916 11.0075 26.5168C12.2395 26.9584 14.0833 27.2033 16.0008 27.2033C17.9183 27.2033 19.7622 26.9584 20.9942 26.5168C21.6227 26.2916 21.9711 26.0573 22.1231 25.8852C22.1898 25.8098 22.2037 25.7785 22.1939 25.7327C21.9982 25.3942 21.6359 25.1833 21.2416 25.1833C20.5502 25.1833 20.1254 24.6769 20.0076 24.2226C19.8911 23.7735 20.0108 23.1471 20.5784 22.8008C23.1133 21.2536 24.8015 18.4648 24.8015 15.2826C24.8015 10.4221 20.8613 6.48191 16.0008 6.48191ZM5 15.2826C5 9.20698 9.92524 4.28174 16.0008 4.28174C22.0764 4.28174 27.0017 9.20698 27.0017 15.2826C27.0017 18.614 25.5203 21.5987 23.1835 23.615C23.6031 23.9203 23.9525 24.3257 24.1934 24.8075L24.2219 24.8645L24.2436 24.9244C24.5752 25.8386 24.3446 26.6939 23.7718 27.3421C23.2602 27.9211 22.5049 28.3126 21.7364 28.588C20.1744 29.1478 18.0508 29.4035 16.0008 29.4035C13.9509 29.4035 11.8272 29.1478 10.2652 28.588C9.49677 28.3126 8.74147 27.9211 8.22989 27.3421C7.6571 26.6939 7.42649 25.8386 7.75805 24.9244L7.77978 24.8645L7.80828 24.8075C8.0492 24.3257 8.39854 23.9203 8.81815 23.615C6.48133 21.5987 5 18.614 5 15.2826ZM12 13.5362C12 12.9321 12.496 12.4424 13.1001 12.4424C13.7042 12.4424 14.2002 12.9321 14.2002 13.5362V15.1989C14.2002 15.803 13.7042 16.2927 13.1001 16.2927C12.496 16.2927 12 15.803 12 15.1989V13.5362ZM18.6011 12.4424C17.997 12.4424 17.501 12.9321 17.501 13.5362V15.1989C17.501 15.803 17.997 16.2927 18.6011 16.2927C19.2051 16.2927 19.7011 15.803 19.7011 15.1989V13.5362C19.7011 12.9321 19.2051 12.4424 18.6011 12.4424Z" fill="#191919"/>
<path fill-rule="evenodd" clip-rule="evenodd" d="M16.0003 22.5007C15.8935 22.3204 15.756 22.1535 15.5876 22.0077L14.6474 21.1935C13.6112 20.2961 12 21.0322 12 22.403L12 24.6361C12 26.007 13.6112 26.743 14.6474 25.8456L15.5876 25.0314C15.7559 24.8857 15.8935 24.7188 16.0003 24.5385C16.1071 24.7188 16.2447 24.8857 16.4131 25.0315L17.3532 25.8457C18.3894 26.7431 20.0007 26.007 20.0007 24.6362V22.4031C20.0007 21.0323 18.3894 20.2962 17.3532 21.1936L16.4131 22.0078C16.2447 22.1536 16.1071 22.3205 16.0003 22.5007Z" fill="#9CE02D"/>
</svg>
