<svg width="300" height="300" viewBox="0 0 300 300" fill="none" xmlns="http://www.w3.org/2000/svg">
<rect x="113.806" y="58" width="136.557" height="152.956" rx="20" transform="rotate(8.19619 113.806 58)" fill="#D9DBE0"/>
<rect x="57" y="64.9668" width="153" height="165" rx="20" transform="rotate(-6.36678 57 64.9668)" fill="#FAFAFA"/>
<path d="M200.517 27.6617C199.776 26.8746 199.794 25.6406 200.559 24.8759L202.245 23.1901C203.009 22.4255 204.243 22.407 205.03 23.1484L226.099 42.992C226.92 43.7654 226.94 45.0645 226.142 45.8622L223.235 48.7692C222.437 49.5667 221.138 49.5474 220.365 48.7265L200.517 27.6617Z" fill="#9CE02D"/>
<path d="M197.954 0C198.199 3.11691 200.189 5.82567 203.091 6.99007L206.186 8.23239L203.091 9.47471C200.189 10.6391 198.199 13.3479 197.954 16.4648C197.71 13.3479 195.719 10.6391 192.817 9.47471L189.722 8.23239L192.817 6.99007C195.719 5.82567 197.71 3.11691 197.954 0Z" fill="#9CE02D"/>
<path d="M48.2324 189C48.477 192.117 50.4675 194.826 53.3691 195.99L56.4648 197.232L53.3691 198.475C50.4675 199.639 48.477 202.348 48.2324 205.465C47.9878 202.348 45.9973 199.639 43.0957 198.475L40 197.232L43.0957 195.99C45.9973 194.826 47.9878 192.117 48.2324 189Z" fill="#9CE02D"/>
<path d="M62.5127 238C62.8692 242.543 65.7707 246.492 70.0002 248.189L74.5127 250L70.0002 251.811C65.7707 253.508 62.8692 257.457 62.5127 262C62.1562 257.457 59.2547 253.508 55.0252 251.811L50.5127 250L55.0252 248.189C59.2547 246.492 62.1562 242.543 62.5127 238Z" fill="#9CE02D"/>
<path d="M182.86 16.4648C183.064 19.0623 184.723 21.3196 187.141 22.2899L189.721 23.3252L187.141 24.3604C184.723 25.3308 183.064 27.5881 182.86 30.1855C182.657 27.5881 180.998 25.3308 178.58 24.3604L176 23.3252L178.58 22.2899C180.998 21.3196 182.657 19.0623 182.86 16.4648Z" fill="#9CE02D"/>
<path d="M193 38C193.149 39.8931 194.358 41.5383 196.12 42.2455L198 43L196.12 43.7545C194.358 44.4617 193.149 46.1069 193 48C192.851 46.1069 191.642 44.4617 189.88 43.7545L188 43L189.88 42.2455C191.642 41.5383 192.851 39.8931 193 38Z" fill="#9CE02D"/>
</svg>
