<svg width="12" height="8" viewBox="0 0 12 8" fill="none" xmlns="http://www.w3.org/2000/svg">
<path opacity="0.7" fill-rule="evenodd" clip-rule="evenodd" d="M1.70329 2.27527C1.72221 2.09439 1.8252 1.93886 1.97423 1.83664C2.25459 1.64434 2.6656 1.66127 2.92224 1.89323L2.92549 1.89616L5.99824 4.75603L9.07081 1.89606C9.32689 1.65767 9.74332 1.63881 10.0262 1.83285C10.1768 1.93618 10.2802 2.09381 10.2977 2.27668C10.3153 2.46109 10.2419 2.63708 10.1052 2.76431L6.5155 6.10542C6.37469 6.23653 6.1842 6.30078 5.99825 6.30078C5.81231 6.30078 5.6219 6.23661 5.48108 6.10549L1.88804 2.76127C1.75443 2.63313 1.68419 2.4578 1.70329 2.27527Z" fill="white"/>
</svg>
