<svg width="24" height="24" viewBox="0 0 24 24" fill="none" xmlns="http://www.w3.org/2000/svg">
<path d="M16.5977 14.792C16.4102 14.792 16.2266 14.8115 16.043 14.8467C15.8594 14.8818 15.6836 14.9365 15.5117 15.0068C15.3398 15.0771 15.1758 15.1631 15.0195 15.2646C14.8633 15.3662 14.7187 15.4834 14.5859 15.6123L9.34766 12.667C9.40234 12.4443 9.42969 12.2178 9.42969 11.9912C9.42969 11.7607 9.40234 11.5381 9.34766 11.3154L14.5859 8.37012C14.625 8.40918 14.668 8.44824 14.7109 8.4834C14.7539 8.51855 14.7969 8.55762 14.8437 8.58887C14.8906 8.62012 14.9336 8.65527 14.9805 8.68652C15.0273 8.71777 15.0742 8.74902 15.1211 8.77637C15.168 8.80371 15.2187 8.83105 15.2695 8.8584C15.3203 8.88574 15.3711 8.90918 15.4219 8.93262C15.4727 8.95605 15.5234 8.97559 15.5781 8.99512C15.6289 9.01465 15.6836 9.03418 15.7383 9.0498L15.9023 9.09668C15.957 9.1084 16.0117 9.12402 16.0664 9.13184C16.1211 9.14355 16.1758 9.15137 16.2344 9.15918C16.2891 9.16699 16.3477 9.1709 16.4023 9.1748C16.457 9.17871 16.5156 9.17871 16.5703 9.18262C16.625 9.18262 16.6836 9.18262 16.7383 9.17871C16.793 9.1748 16.8516 9.1709 16.9062 9.16699C16.9609 9.15918 17.0195 9.15137 17.0742 9.14355C17.1289 9.13574 17.1836 9.12402 17.2383 9.1084C17.293 9.09277 17.3477 9.08105 17.4023 9.06543C17.457 9.0498 17.5117 9.03027 17.5625 9.01465C17.6172 8.99512 17.668 8.97559 17.7187 8.95215L17.8711 8.88184C17.9219 8.8584 17.9727 8.83105 18.0195 8.80371C18.0703 8.77637 18.1172 8.74512 18.1641 8.71387C18.2109 8.68262 18.2578 8.65137 18.3008 8.61621C18.3477 8.58105 18.3906 8.5459 18.4336 8.51074C18.4766 8.47559 18.5195 8.43652 18.5586 8.39746C18.5977 8.3584 18.6406 8.31934 18.6797 8.27637C18.7187 8.2373 18.7539 8.19434 18.793 8.15137C18.832 8.1084 18.8633 8.06543 18.8984 8.01856C18.9336 7.97168 18.9648 7.92871 18.9961 7.88184C19.0273 7.83496 19.0547 7.78809 19.0859 7.7373C19.1133 7.68652 19.1406 7.63965 19.1641 7.58887L19.2344 7.43652C19.2578 7.38574 19.2773 7.33105 19.2969 7.28027C19.3164 7.22949 19.332 7.1748 19.3477 7.12012C19.3633 7.06543 19.3789 7.01074 19.3906 6.95605C19.4023 6.90137 19.4141 6.84668 19.4219 6.79199C19.4297 6.7373 19.4375 6.68262 19.4453 6.62402C19.4531 6.56543 19.457 6.51074 19.457 6.45605C19.4609 6.40137 19.4609 6.34277 19.4609 6.28809C19.4609 6.2334 19.457 6.1748 19.4531 6.12012C19.4492 6.06543 19.4453 6.00684 19.4375 5.95215C19.4297 5.89746 19.4219 5.83887 19.4102 5.78418L19.375 5.62012C19.3633 5.56543 19.3477 5.51074 19.3281 5.45605C19.3125 5.40137 19.293 5.35059 19.2734 5.2959C19.2539 5.24512 19.2305 5.19043 19.2109 5.13965C19.1875 5.08887 19.1641 5.03809 19.1367 4.9873C19.1094 4.93652 19.082 4.88965 19.0547 4.83887C19.0273 4.78809 18.9961 4.74121 18.9648 4.69824C18.9336 4.65137 18.8984 4.60449 18.8672 4.56152C18.8359 4.51855 18.7969 4.47168 18.7617 4.42871C18.7266 4.38574 18.6875 4.34277 18.6484 4.30371C18.6094 4.26465 18.5703 4.22559 18.5273 4.18652C18.4844 4.14746 18.4414 4.1123 18.3984 4.07715C18.3555 4.04199 18.3086 4.00684 18.2656 3.97559L18.125 3.88184C18.0781 3.85059 18.0273 3.82324 17.9805 3.7959C17.9297 3.76855 17.8828 3.74121 17.832 3.71777C17.7812 3.69434 17.7305 3.6709 17.6758 3.64746C17.625 3.62793 17.5703 3.6084 17.5195 3.58887C17.4648 3.56934 17.4141 3.55371 17.3594 3.53809C17.3047 3.52246 17.25 3.51074 17.1953 3.49902C17.1406 3.4873 17.0859 3.47559 17.0273 3.46777C16.9727 3.45996 16.9141 3.45215 16.8594 3.44824C16.8047 3.44434 16.7461 3.44043 16.6914 3.43652C16.6367 3.43262 16.5781 3.43262 16.5234 3.43652C16.4687 3.44043 16.4102 3.44043 16.3555 3.44434C16.3008 3.44824 16.2422 3.45605 16.1875 3.46387C16.1328 3.47168 16.0781 3.47949 16.0195 3.49121C15.9648 3.50293 15.9102 3.51465 15.8555 3.53027C15.8008 3.5459 15.7461 3.56152 15.6953 3.57715C15.6406 3.59668 15.5898 3.6123 15.5352 3.63574C15.4805 3.65918 15.4297 3.67871 15.3789 3.70215C15.3281 3.72559 15.2773 3.75293 15.2266 3.77637C15.1758 3.80371 15.1289 3.83105 15.082 3.8623C15.0352 3.89355 14.9883 3.9209 14.9414 3.95605C14.8945 3.9873 14.8516 4.02246 14.8047 4.05762C14.7617 4.09277 14.7187 4.12793 14.6758 4.16699C14.6328 4.20605 14.5937 4.24512 14.5547 4.28418C14.5156 4.32324 14.4766 4.36621 14.4375 4.40918C14.3984 4.45215 14.3633 4.49512 14.3281 4.53809C14.293 4.58105 14.2617 4.62793 14.2266 4.6748L14.1328 4.81543C14.1016 4.8623 14.0742 4.91309 14.0508 4.96387C14.0234 5.01465 14 5.06543 13.9766 5.11621C13.9531 5.16699 13.9297 5.21777 13.9102 5.27246C13.8906 5.32324 13.8711 5.37793 13.8516 5.43262L13.8047 5.59668C13.7891 5.65137 13.7773 5.70605 13.7656 5.76074C13.7539 5.81543 13.7461 5.87012 13.7383 5.92871C13.7305 5.9834 13.7227 6.04199 13.7187 6.09668C13.7148 6.15137 13.7109 6.20996 13.7109 6.26465V6.43262C13.7109 6.4873 13.7187 6.5459 13.7227 6.60059C13.7266 6.65527 13.7344 6.71387 13.7461 6.76855L8.38672 9.78418C8.31641 9.72559 8.24609 9.6709 8.16797 9.62012C8.09375 9.56934 8.01562 9.52246 7.9375 9.47559C7.85937 9.43262 7.77734 9.38965 7.69531 9.35449C7.61328 9.31934 7.52734 9.28418 7.44141 9.25684C7.35547 9.22949 7.26953 9.20605 7.17969 9.18262C7.08984 9.16309 7 9.14746 6.91016 9.13574C6.82031 9.12402 6.73047 9.11621 6.64062 9.1123C6.55078 9.1084 6.46094 9.1123 6.36719 9.11621C6.27344 9.12012 6.1875 9.13184 6.09766 9.14355C6.00781 9.15918 5.91797 9.1748 5.83203 9.19824C5.74219 9.22168 5.65625 9.24902 5.57031 9.27637C5.48437 9.30762 5.40234 9.34277 5.32031 9.38184C5.23828 9.4209 5.15625 9.46387 5.07812 9.50684C5 9.55371 4.92578 9.60449 4.85156 9.65527C4.77734 9.70996 4.70703 9.76465 4.64062 9.82324C4.57422 9.88184 4.50781 9.94434 4.44531 10.0107C4.38281 10.0771 4.32422 10.1475 4.26953 10.2178C4.21484 10.2881 4.16016 10.3623 4.11328 10.4404C4.06641 10.5186 4.01953 10.5967 3.97656 10.6748C3.93359 10.7568 3.89844 10.8389 3.86328 10.9209C3.82813 11.0068 3.80078 11.0928 3.77344 11.1787C3.75 11.2646 3.72656 11.3545 3.71094 11.4443C3.69531 11.5342 3.67969 11.624 3.67187 11.7139C3.66406 11.8037 3.66016 11.8936 3.66016 11.9873C3.66016 12.0771 3.66406 12.167 3.67187 12.2607C3.67969 12.3506 3.69141 12.4404 3.71094 12.5303C3.72656 12.6201 3.75 12.7061 3.77344 12.7959C3.79688 12.8818 3.82813 12.9678 3.86328 13.0537C3.89844 13.1396 3.93359 13.2217 3.97656 13.2998C4.01953 13.3818 4.0625 13.46 4.11328 13.5342C4.16016 13.6123 4.21484 13.6865 4.26953 13.7568C4.32422 13.8271 4.38281 13.8975 4.44531 13.9639C4.50781 14.0303 4.57422 14.0928 4.64062 14.1514C4.70703 14.21 4.78125 14.2686 4.85156 14.3193C4.92578 14.374 5 14.4209 5.07812 14.4678C5.15625 14.5146 5.23828 14.5576 5.32031 14.5928C5.40234 14.6318 5.48828 14.667 5.57031 14.6982C5.65625 14.7295 5.74219 14.7568 5.83203 14.7764C5.92187 14.7998 6.00781 14.8154 6.09766 14.8311C6.1875 14.8467 6.27734 14.8545 6.36719 14.8584C6.45703 14.8623 6.54687 14.8662 6.64062 14.8623C6.73047 14.8584 6.82031 14.8506 6.91016 14.8389C7 14.8271 7.08984 14.8115 7.17969 14.792C7.26953 14.7725 7.35547 14.749 7.44141 14.7178C7.52734 14.6904 7.61328 14.6553 7.69531 14.6201C7.77734 14.585 7.85937 14.542 7.9375 14.499C8.01562 14.4561 8.09375 14.4092 8.16797 14.3545C8.24219 14.2998 8.31641 14.249 8.38672 14.1904L13.7461 17.2061C13.7383 17.2529 13.7305 17.3037 13.7266 17.3506C13.7227 17.3975 13.7187 17.4482 13.7148 17.4951C13.7109 17.542 13.7109 17.5928 13.7109 17.6396C13.7109 17.6865 13.7109 17.7373 13.7148 17.7842C13.7187 17.8311 13.7187 17.8818 13.7266 17.9287C13.7305 17.9756 13.7383 18.0264 13.7461 18.0732C13.7539 18.1201 13.7617 18.1709 13.7695 18.2178C13.7773 18.2646 13.7891 18.3115 13.8008 18.3623C13.8125 18.4092 13.8242 18.4561 13.8398 18.5029L13.8867 18.6436C13.9023 18.6904 13.9219 18.7334 13.9414 18.7803C13.9609 18.8271 13.9805 18.8701 14 18.9131C14.0195 18.9561 14.043 18.999 14.0664 19.042C14.0898 19.085 14.1133 19.1279 14.1406 19.167C14.168 19.21 14.1914 19.249 14.2187 19.2881C14.2461 19.3271 14.2734 19.3662 14.3047 19.4053C14.3359 19.4443 14.3633 19.4834 14.3984 19.5186C14.4297 19.5576 14.4609 19.5928 14.4961 19.6279C14.5312 19.6631 14.5625 19.6982 14.5977 19.7334C14.6328 19.7686 14.668 19.7998 14.707 19.8311C14.7422 19.8623 14.7812 19.8936 14.8203 19.9248C14.8594 19.9561 14.8984 19.9834 14.9375 20.0107C14.9766 20.0381 15.0195 20.0654 15.0586 20.0928C15.1016 20.1201 15.1406 20.1436 15.1836 20.167C15.2266 20.1904 15.2695 20.2139 15.3125 20.2334C15.3555 20.2568 15.4023 20.2764 15.4453 20.2959C15.4883 20.3154 15.5352 20.335 15.582 20.3506C15.6289 20.3662 15.6719 20.3818 15.7187 20.3975C15.7656 20.4131 15.8125 20.4248 15.8594 20.4365L16 20.4717C16.0469 20.4834 16.0937 20.4912 16.1445 20.499C16.1914 20.5068 16.2422 20.5146 16.2891 20.5186C16.3359 20.5225 16.3867 20.5264 16.4336 20.5303C16.4805 20.5342 16.5312 20.5342 16.5781 20.5342C16.625 20.5342 16.6758 20.5342 16.7227 20.5303C16.7695 20.5264 16.8203 20.5264 16.8672 20.5186C16.9141 20.5146 16.9648 20.5068 17.0117 20.499C17.0586 20.4912 17.1094 20.4834 17.1562 20.4756C17.2031 20.4678 17.25 20.4561 17.3008 20.4443C17.3477 20.4326 17.3945 20.4209 17.4414 20.4053C17.4883 20.3896 17.5352 20.374 17.5781 20.3584C17.625 20.3428 17.668 20.3232 17.7148 20.3037C17.7578 20.2842 17.8047 20.2646 17.8477 20.2412C17.8906 20.2217 17.9336 20.1982 17.9766 20.1748C18.0195 20.1514 18.0625 20.1279 18.1016 20.1006C18.1445 20.0732 18.1836 20.0498 18.2227 20.0186C18.2617 19.9912 18.3008 19.9639 18.3398 19.9326C18.3789 19.9014 18.418 19.874 18.4531 19.8389C18.4883 19.8076 18.5273 19.7764 18.5625 19.7412C18.5977 19.7061 18.6328 19.6748 18.668 19.6396C18.7031 19.6045 18.7344 19.5693 18.7656 19.5303C18.7969 19.4951 18.8281 19.4561 18.8594 19.417C18.8906 19.3779 18.918 19.3389 18.9453 19.2998C18.9727 19.2607 19 19.2178 19.0273 19.1787C19.0547 19.1357 19.0781 19.0967 19.1016 19.0537C19.125 19.0107 19.1484 18.9678 19.168 18.9248C19.1914 18.8818 19.2109 18.835 19.2305 18.792C19.25 18.749 19.2695 18.7021 19.2852 18.6553C19.3008 18.6084 19.3164 18.5615 19.332 18.5186C19.3477 18.4717 19.3594 18.4248 19.3711 18.3779L19.4062 18.2373C19.418 18.1904 19.4258 18.1396 19.4336 18.0928C19.4414 18.0459 19.4492 17.9951 19.4531 17.9482C19.457 17.9014 19.4609 17.8506 19.4648 17.8037C19.4687 17.7568 19.4687 17.7061 19.4687 17.6592C19.4687 17.6123 19.4687 17.5615 19.4648 17.5146C19.4609 17.4678 19.457 17.417 19.4531 17.3701C19.4492 17.3232 19.4414 17.2725 19.4336 17.2256C19.4258 17.1787 19.418 17.1279 19.4062 17.0811C19.3984 17.0342 19.3867 16.9873 19.375 16.9404C19.3633 16.8936 19.3477 16.8467 19.3359 16.7998C19.3203 16.7529 19.3047 16.7061 19.2891 16.6631C19.2734 16.6162 19.2539 16.5732 19.2344 16.5264C19.2148 16.4834 19.1953 16.4365 19.1719 16.3936C19.1523 16.3506 19.1289 16.3076 19.1055 16.2646C19.082 16.2217 19.0586 16.1787 19.0312 16.1396C19.0039 16.0967 18.9805 16.0576 18.9492 16.0186C18.9219 15.9795 18.8945 15.9404 18.8633 15.9014C18.832 15.8623 18.8008 15.8232 18.7695 15.7881C18.7383 15.7529 18.707 15.7139 18.6719 15.6787C18.6367 15.6436 18.6055 15.6084 18.5703 15.5732C18.5352 15.5381 18.5 15.5068 18.4609 15.4756C18.4258 15.4443 18.3867 15.4131 18.3477 15.3818C18.3086 15.3506 18.2695 15.3232 18.2305 15.2959C18.1914 15.2686 18.1484 15.2412 18.1094 15.2139C18.0664 15.1865 18.0273 15.1631 17.9844 15.1396C17.9414 15.1162 17.8984 15.0928 17.8555 15.0732C17.8125 15.0498 17.7656 15.0303 17.7227 15.0107C17.6797 14.9912 17.6328 14.9717 17.5859 14.9561C17.5391 14.9404 17.4922 14.9248 17.4492 14.9092C17.4023 14.8936 17.3555 14.8818 17.3086 14.8701C17.2617 14.8584 17.2148 14.8467 17.168 14.8389C17.1211 14.8271 17.0703 14.8193 17.0234 14.8115C16.9766 14.8037 16.9258 14.7998 16.8789 14.792C16.832 14.7842 16.7812 14.7842 16.7344 14.7803C16.6953 14.7959 16.6484 14.792 16.5977 14.792Z" fill="#191919"/>
</svg>
