<svg width="42" height="42" viewBox="0 0 42 42" fill="none" xmlns="http://www.w3.org/2000/svg">
<circle cx="21" cy="21" r="21" fill="#9CE02D"/>
<path fill-rule="evenodd" clip-rule="evenodd" d="M20.5 14C20.2239 14 20 14.2239 20 14.5V20H14.5C14.2239 20 14 20.2239 14 20.5V21.5C14 21.7761 14.2239 22 14.5 22H20V27.5C20 27.7761 20.2239 28 20.5 28H21.5C21.7761 28 22 27.7761 22 27.5V22H27.5C27.7761 22 28 21.7761 28 21.5V20.5C28 20.2239 27.7761 20 27.5 20H22V14.5C22 14.2239 21.7761 14 21.5 14H20.5Z" fill="#191919"/>
</svg>
