<svg width="32" height="32" viewBox="0 0 32 32" fill="none" xmlns="http://www.w3.org/2000/svg">
<path d="M15.9691 26.0736C15.4447 26.0736 15.0195 25.6484 15.0195 25.1241C15.0195 24.5997 15.4447 24.1745 15.9691 24.1745C19.178 24.1745 22.1263 22.3742 23.6637 19.4761C23.909 19.0127 24.4825 18.8354 24.9476 19.0823C25.4108 19.328 25.587 19.9027 25.3412 20.3659C23.4736 23.8866 19.8827 26.0736 15.9691 26.0736ZM25.676 16.1258C25.1516 16.1258 24.7264 15.7007 24.7264 15.1763C24.7264 10.2148 20.7979 6.17831 15.9691 6.17831C11.1406 6.17831 7.21264 10.2148 7.21264 15.1763C7.21264 15.7007 6.78749 16.1258 6.26311 16.1258C5.73872 16.1258 5.31357 15.7007 5.31357 15.1763C5.31357 9.16766 10.0938 4.27921 15.9691 4.27921C21.8449 4.27921 26.6255 9.16766 26.6255 15.1763C26.6255 15.7007 26.2003 16.1258 25.676 16.1258Z" fill="#191919"/>
<path d="M6.26263 21.0996C4.93615 21.0996 3.85724 20.0205 3.85724 18.694V16.6322C3.85724 15.3059 4.93615 14.2268 6.26263 14.2268C7.58911 14.2268 8.66802 15.3059 8.66802 16.6322V18.694C8.66802 20.0204 7.58911 21.0996 6.26263 21.0996ZM6.26263 16.1258C5.98352 16.1258 5.75631 16.353 5.75631 16.6321V18.694C5.75631 18.9733 5.98349 19.2005 6.26263 19.2005C6.54176 19.2005 6.76894 18.9733 6.76894 18.694V16.6321C6.76892 16.353 6.54174 16.1258 6.26263 16.1258ZM14.0278 25.1241C14.0278 24.5747 14.4732 24.1293 15.0226 24.1293H16.9156C17.465 24.1293 17.9104 24.5746 17.9104 25.124C17.9104 25.6734 17.465 26.1188 16.9156 26.1188H15.0226C14.4732 26.1188 14.0278 25.6734 14.0278 25.1241ZM25.19 21.0996C23.8636 21.0996 22.7847 20.0205 22.7847 18.694V16.6322C22.7847 15.3059 23.8636 14.2268 25.19 14.2268C26.5165 14.2268 27.5954 15.3059 27.5954 16.6322V18.694C27.5955 20.0204 26.5166 21.0996 25.19 21.0996ZM25.19 16.1258C24.9109 16.1258 24.6837 16.353 24.6837 16.6321V18.694C24.6837 18.9733 24.9109 19.2005 25.19 19.2005C25.4692 19.2005 25.6964 18.9733 25.6964 18.694V16.6321C25.6964 16.353 25.4692 16.1258 25.19 16.1258Z" fill="#191919"/>
<path d="M15.9691 19.6078C14.4933 19.6078 13.1408 19.1303 12.3508 18.3303C11.9822 17.957 11.9859 17.3559 12.3591 16.9875C12.7323 16.6189 13.3337 16.6222 13.7018 16.9959C14.0269 17.3246 14.8155 17.7087 15.9691 17.7087C17.1226 17.7087 17.9113 17.3246 18.2363 16.9959C18.6045 16.6226 19.2063 16.6189 19.579 16.9875C19.9523 17.3559 19.956 17.957 19.5874 18.3303C18.7973 19.1303 17.4448 19.6078 15.9691 19.6078Z" fill="#9CE02D"/>
<rect x="12" y="11" width="2" height="3" rx="1" fill="#191919"/>
<rect x="18" y="11" width="2" height="3" rx="1" fill="#191919"/>
</svg>
