<svg width="32" height="32" viewBox="0 0 32 32" fill="none" xmlns="http://www.w3.org/2000/svg">
<path d="M21.0047 10.8838L19.8544 10.0614C19.7494 9.98606 19.6258 9.94583 19.4994 9.94583C19.373 9.94583 19.2495 9.98606 19.1445 10.0614L17.9942 10.8838C17.5695 11.1873 17 10.861 17 10.3131V6H22V10.3131C22 10.861 21.4305 11.1873 21.0047 10.8838Z" fill="#9CE02D"/>
<path fill-rule="evenodd" clip-rule="evenodd" d="M7 8.6C7 7.71634 7.71634 7 8.6 7H23.4C24.2837 7 25 7.71634 25 8.6V23C25 24.1046 24.1046 25 23 25H9C7.89543 25 7 24.1046 7 23V8.6ZM8.6 5C6.61177 5 5 6.61177 5 8.6V23C5 25.2091 6.79086 27 9 27H23C25.2091 27 27 25.2091 27 23V8.6C27 6.61177 25.3882 5 23.4 5H8.6ZM9.2 20.043H10.7039L11.6449 17.7484H14.8633L15.727 20.043H17.3941L14.2102 11.6211H12.6504L9.2 20.043ZM14.5109 16.8289H12.0102L13.2992 13.6363C13.4052 13.9199 13.5083 14.1935 13.6086 14.457C13.7089 14.7177 13.8077 14.977 13.9051 15.2348C14.0025 15.4897 14.0999 15.749 14.1973 16.0125L14.5109 16.8289ZM19.4738 20.043H21.0723V11.6211H19.4738V20.043Z" fill="#191919"/>
</svg>
