<svg width="60" height="60" viewBox="0 0 60 60" fill="none" xmlns="http://www.w3.org/2000/svg">
<rect width="60" height="60" rx="8" fill="#EAECF0"/>
<g opacity="0.4">
<path fill-rule="evenodd" clip-rule="evenodd" d="M30.0006 20.0821C25.5822 20.0821 22.0003 23.6639 22.0003 28.0824C22.0003 30.9752 23.535 33.5104 25.8394 34.9168C26.3553 35.2317 26.4641 35.8011 26.3582 36.2093C26.2511 36.6223 25.8649 37.0827 25.2365 37.0827C24.878 37.0827 24.5487 37.2744 24.3708 37.5821C24.3619 37.6237 24.3745 37.6522 24.4351 37.7208C24.5733 37.8772 24.89 38.0902 25.4614 38.2949C26.5814 38.6963 28.2575 38.919 30.0006 38.919C31.7437 38.919 33.4198 38.6963 34.5398 38.2949C35.1112 38.0902 35.4278 37.8772 35.566 37.7208C35.6267 37.6522 35.6393 37.6237 35.6304 37.5821C35.4525 37.2744 35.1232 37.0827 34.7647 37.0827C34.1362 37.0827 33.7501 36.6223 33.6429 36.2093C33.5371 35.8011 33.6459 35.2317 34.1618 34.9168C36.4662 33.5104 38.0009 30.9752 38.0009 28.0824C38.0009 23.6639 34.419 20.0821 30.0006 20.0821ZM20.0002 28.0824C20.0002 22.5593 24.4775 18.082 30.0006 18.082C35.5236 18.082 40.0009 22.5593 40.0009 28.0824C40.0009 31.1108 38.6543 33.8241 36.53 35.657C36.9115 35.9345 37.2291 36.303 37.4481 36.741L37.474 36.7929L37.4937 36.8473C37.7951 37.6784 37.5855 38.4559 37.0648 39.0452C36.5997 39.5714 35.9131 39.9274 35.2146 40.1777C33.7946 40.6866 31.8641 40.919 30.0006 40.919C28.1371 40.919 26.2066 40.6866 24.7866 40.1777C24.088 39.9274 23.4014 39.5714 22.9364 39.0452C22.4157 38.4559 22.2061 37.6784 22.5075 36.8473L22.5272 36.7929L22.5531 36.741C22.7721 36.303 23.0897 35.9345 23.4711 35.657C21.3468 33.8241 20.0002 31.1108 20.0002 28.0824ZM26.5005 26.5007C26.5005 25.9484 26.9482 25.5006 27.5005 25.5006C28.0528 25.5006 28.5006 25.9484 28.5006 26.5007V28.0007C28.5006 28.553 28.0528 29.0007 27.5005 29.0007C26.9482 29.0007 26.5005 28.553 26.5005 28.0007V26.5007ZM32.5007 25.5006C31.9484 25.5006 31.5006 25.9484 31.5006 26.5007V28.0007C31.5006 28.553 31.9484 29.0007 32.5007 29.0007C33.053 29.0007 33.5007 28.553 33.5007 28.0007V26.5007C33.5007 25.9484 33.053 25.5006 32.5007 25.5006Z" fill="black"/>
</g>
</svg>
