<svg width="32" height="32" viewBox="0 0 32 32" fill="none" xmlns="http://www.w3.org/2000/svg">
<path fill-rule="evenodd" clip-rule="evenodd" d="M16.0008 6.48191C11.1404 6.48191 7.20017 10.4221 7.20017 15.2826C7.20017 18.4648 8.88839 21.2536 11.4233 22.8008C11.9908 23.1471 12.1106 23.7735 11.9941 24.2226C11.8762 24.6769 11.4514 25.1833 10.7601 25.1833C10.3658 25.1833 10.0035 25.3942 9.80779 25.7327C9.79798 25.7785 9.8119 25.8098 9.87859 25.8852C10.0306 26.0573 10.379 26.2916 11.0075 26.5168C12.2395 26.9584 14.0833 27.2033 16.0008 27.2033C17.9183 27.2033 19.7622 26.9584 20.9942 26.5168C21.6227 26.2916 21.9711 26.0573 22.1231 25.8852C22.1898 25.8098 22.2037 25.7785 22.1939 25.7327C21.9982 25.3942 21.6359 25.1833 21.2416 25.1833C20.5502 25.1833 20.1254 24.6769 20.0076 24.2226C19.8911 23.7735 20.0108 23.1471 20.5784 22.8008C23.1133 21.2536 24.8015 18.4648 24.8015 15.2826C24.8015 10.4221 20.8613 6.48191 16.0008 6.48191ZM5 15.2826C5 9.20698 9.92524 4.28174 16.0008 4.28174C22.0764 4.28174 27.0017 9.20698 27.0017 15.2826C27.0017 18.614 25.5203 21.5987 23.1835 23.615C23.6031 23.9203 23.9525 24.3257 24.1934 24.8075L24.2219 24.8645L24.2436 24.9244C24.5752 25.8386 24.3446 26.6939 23.7718 27.3421C23.2602 27.9211 22.5049 28.3126 21.7364 28.588C20.1744 29.1478 18.0508 29.4035 16.0008 29.4035C13.9509 29.4035 11.8272 29.1478 10.2652 28.588C9.49677 28.3126 8.74147 27.9211 8.22989 27.3421C7.6571 26.6939 7.42649 25.8386 7.75805 24.9244L7.77978 24.8645L7.80828 24.8075C8.0492 24.3257 8.39854 23.9203 8.81815 23.615C6.48133 21.5987 5 18.614 5 15.2826ZM12.1504 13.5362C12.1504 12.9321 12.6464 12.4424 13.2505 12.4424C13.8546 12.4424 14.3506 12.9321 14.3506 13.5362V15.1989C14.3506 15.803 13.8546 16.2927 13.2505 16.2927C12.6464 16.2927 12.1504 15.803 12.1504 15.1989V13.5362ZM18.7515 12.4424C18.1474 12.4424 17.6514 12.9321 17.6514 13.5362V15.1989C17.6514 15.803 18.1474 16.2927 18.7515 16.2927C19.3555 16.2927 19.8515 15.803 19.8515 15.1989V13.5362C19.8515 12.9321 19.3555 12.4424 18.7515 12.4424Z" fill="#191919"/>
<path fill-rule="evenodd" clip-rule="evenodd" d="M23.9395 3.60424C23.9212 3.49 23.8927 3.37555 23.8533 3.26194L23.4442 2.08076C22.8833 0.461646 20.679 0.251471 19.8223 1.73541L19.0039 3.15283C18.1472 4.63677 19.4313 6.44062 21.1139 6.11679L22.3415 5.88056C22.4595 5.85784 22.5729 5.82531 22.6809 5.78403C22.6992 5.89827 22.7277 6.01272 22.7671 6.12633L23.1763 7.30751C23.7371 8.92662 25.9414 9.1368 26.7981 7.65286L27.6165 6.23544C28.4732 4.7515 27.1891 2.94765 25.5065 3.27147L24.279 3.50771C24.1609 3.53043 24.0475 3.56296 23.9395 3.60424Z" fill="#9CE02D"/>
</svg>
